<?xml version="1.0" encoding="UTF-8" standalone="no"?><svg xmlns="http://www.w3.org/2000/svg" xmlns:xlink="http://www.w3.org/1999/xlink" clip-rule="evenodd" stroke-miterlimit="10" viewBox="0 0 1024 768"><desc>SVG generated by Keynote</desc><defs></defs><g transform="matrix(1.00, 0.00, -0.00, -1.00, 0.0, 768.0)"><path d="M 0.0 768.0 L 1024.0 768.0 L 1024.0 0.0 L 0.0 0.0 Z M 0.0 768.0 " fill="#000000"></path><g><clipPath id="clip0x6080012b87e0"><path d="M 98.0 494.0 L 350.0 494.0 L 350.0 120.0 L 98.0 120.0 Z M 97.8 493.5 "></path></clipPath><g clip-path="url(#clip0x6080012b87e0)"><image xlink:href="../../00C26F3B-835F-4593-9866-BB22339A99F4/assets/C4F31166A72522E98364FF09BFF1140F.jpeg" width="3264.00" height="2448.00" transform="matrix(0.15, 0.00, -0.00, -0.15, -46.0, 493.0)"></image></g></g><text xml:space="preserve" font-family="Helvetica-Light,Helvetica" font-size="73.6" fill="#00A6AC" transform="matrix(1.00, 0.00, -0.00, -1.00, 370.9, 622.1)">t</text><text xml:space="preserve" font-family="Helvetica-Light,Helvetica" font-size="73.6" fill="#00A6AC" transform="matrix(1.00, 0.00, -0.00, -1.00, 391.4, 622.1)">w</text><text xml:space="preserve" font-family="Helvetica-Light,Helvetica" font-size="73.6" fill="#00A6AC" transform="matrix(1.00, 0.00, -0.00, -1.00, 444.5, 622.1)">o</text><text xml:space="preserve" font-family="Helvetica-Light,Helvetica" font-size="73.6" fill="#00A6AC" transform="matrix(1.00, 0.00, -0.00, -1.00, 485.4, 622.1)"> </text><text xml:space="preserve" font-family="Helvetica-Light,Helvetica" font-size="73.6" fill="#00A6AC" transform="matrix(1.00, 0.00, -0.00, -1.00, 505.9, 622.1)">v</text><text xml:space="preserve" font-family="Helvetica-Light,Helvetica" font-size="73.6" fill="#00A6AC" transform="matrix(1.00, 0.00, -0.00, -1.00, 542.7, 622.1)">i</text><text xml:space="preserve" font-family="Helvetica-Light,Helvetica" font-size="73.6" fill="#00A6AC" transform="matrix(1.00, 0.00, -0.00, -1.00, 559.0, 622.1)">e</text><text xml:space="preserve" font-family="Helvetica-Light,Helvetica" font-size="73.6" fill="#00A6AC" transform="matrix(1.00, 0.00, -0.00, -1.00, 600.0, 622.1)">w</text><text xml:space="preserve" font-family="Helvetica-Light,Helvetica" font-size="73.6" fill="#00A6AC" transform="matrix(1.00, 0.00, -0.00, -1.00, 653.1, 622.1)"> </text><text xml:space="preserve" font-family="Helvetica-Light,Helvetica" font-size="36.0" fill="#FEFFFF" transform="matrix(1.00, 0.00, -0.00, -1.00, 715.7, 545.9)">G</text><text xml:space="preserve" font-family="Helvetica-Light,Helvetica" font-size="36.0" fill="#FEFFFF" transform="matrix(1.00, 0.00, -0.00, -1.00, 743.7, 545.9)">r</text><text xml:space="preserve" font-family="Helvetica-Light,Helvetica" font-size="36.0" fill="#FEFFFF" transform="matrix(1.00, 0.00, -0.00, -1.00, 755.7, 545.9)">i</text><text xml:space="preserve" font-family="Helvetica-Light,Helvetica" font-size="36.0" fill="#FEFFFF" transform="matrix(1.00, 0.00, -0.00, -1.00, 763.7, 545.9)">d</text><text xml:space="preserve" font-family="Helvetica-Light,Helvetica" font-size="36.0" fill="#FEFFFF" transform="matrix(1.00, 0.00, -0.00, -1.00, 785.7, 545.9)"> </text><text xml:space="preserve" font-family="Helvetica-Light,Helvetica" font-size="36.0" fill="#FEFFFF" transform="matrix(1.00, 0.00, -0.00, -1.00, 795.7, 545.9)">V</text><text xml:space="preserve" font-family="Helvetica-Light,Helvetica" font-size="36.0" fill="#FEFFFF" transform="matrix(1.00, 0.00, -0.00, -1.00, 817.0, 545.9)">i</text><text xml:space="preserve" font-family="Helvetica-Light,Helvetica" font-size="36.0" fill="#FEFFFF" transform="matrix(1.00, 0.00, -0.00, -1.00, 825.0, 545.9)">e</text><text xml:space="preserve" font-family="Helvetica-Light,Helvetica" font-size="36.0" fill="#FEFFFF" transform="matrix(1.00, 0.00, -0.00, -1.00, 845.0, 545.9)">w</text><text xml:space="preserve" font-family="Helvetica-Light,Helvetica" font-size="36.0" fill="#FEFFFF" transform="matrix(1.00, 0.00, -0.00, -1.00, 135.0, 546.7)">H</text><text xml:space="preserve" font-family="Helvetica-Light,Helvetica" font-size="36.0" fill="#FEFFFF" transform="matrix(1.00, 0.00, -0.00, -1.00, 161.0, 546.7)">o</text><text xml:space="preserve" font-family="Helvetica-Light,Helvetica" font-size="36.0" fill="#FEFFFF" transform="matrix(1.00, 0.00, -0.00, -1.00, 181.0, 546.7)">m</text><text xml:space="preserve" font-family="Helvetica-Light,Helvetica" font-size="36.0" fill="#FEFFFF" transform="matrix(1.00, 0.00, -0.00, -1.00, 211.0, 546.7)">e</text><text xml:space="preserve" font-family="Helvetica-Light,Helvetica" font-size="36.0" fill="#FEFFFF" transform="matrix(1.00, 0.00, -0.00, -1.00, 231.0, 546.7)"> </text><text xml:space="preserve" font-family="Helvetica-Light,Helvetica" font-size="36.0" fill="#FEFFFF" transform="matrix(1.00, 0.00, -0.00, -1.00, 241.0, 546.7)">v</text><text xml:space="preserve" font-family="Helvetica-Light,Helvetica" font-size="36.0" fill="#FEFFFF" transform="matrix(1.00, 0.00, -0.00, -1.00, 259.0, 546.7)">i</text><text xml:space="preserve" font-family="Helvetica-Light,Helvetica" font-size="36.0" fill="#FEFFFF" transform="matrix(1.00, 0.00, -0.00, -1.00, 267.0, 546.7)">e</text><text xml:space="preserve" font-family="Helvetica-Light,Helvetica" font-size="36.0" fill="#FEFFFF" transform="matrix(1.00, 0.00, -0.00, -1.00, 287.0, 546.7)">w</text><g><clipPath id="clip0x6080012a3540"><path d="M 671.0 497.0 L 945.0 497.0 L 945.0 126.0 L 671.0 126.0 Z M 670.7 497.0 "></path></clipPath><g clip-path="url(#clip0x6080012a3540)"><image xlink:href="../../915209A3-6949-4F82-B55D-29A8AD1D65D1/assets/09A7FB26DBFBA07AE0A4CC616E38F66C.jpeg" width="3264.00" height="2448.00" transform="matrix(0.24, 0.00, -0.00, -0.24, 469.0, 683.0)"></image></g></g></g></svg>