<?xml version="1.0" encoding="UTF-8" standalone="no"?><svg xmlns="http://www.w3.org/2000/svg" xmlns:xlink="http://www.w3.org/1999/xlink" clip-rule="evenodd" stroke-miterlimit="10" viewBox="0 0 1024 768"><desc>SVG generated by Keynote</desc><defs></defs><g transform="matrix(1.00, 0.00, -0.00, -1.00, 0.0, 768.0)"><path d="M 0.0 768.0 L 1024.0 768.0 L 1024.0 0.0 L 0.0 0.0 Z M 0.0 768.0 " fill="#000000"></path><text xml:space="preserve" font-family="Helvetica-Light,Helvetica" font-size="80.0" fill="#FEFFFF" transform="matrix(1.00, 0.00, -0.00, -1.00, 267.4, 633.4)">L</text><text xml:space="preserve" font-family="Helvetica-Light,Helvetica" font-size="80.0" fill="#FEFFFF" transform="matrix(1.00, 0.00, -0.00, -1.00, 311.9, 633.4)">o</text><text xml:space="preserve" font-family="Helvetica-Light,Helvetica" font-size="80.0" fill="#FEFFFF" transform="matrix(1.00, 0.00, -0.00, -1.00, 356.4, 633.4)">o</text><text xml:space="preserve" font-family="Helvetica-Light,Helvetica" font-size="80.0" fill="#FEFFFF" transform="matrix(1.00, 0.00, -0.00, -1.00, 400.9, 633.4)">k</text><text xml:space="preserve" font-family="Helvetica-Light,Helvetica" font-size="80.0" fill="#FEFFFF" transform="matrix(1.00, 0.00, -0.00, -1.00, 440.9, 633.4)"> </text><text xml:space="preserve" font-family="Helvetica-Light,Helvetica" font-size="80.0" fill="#00A6AC" transform="matrix(1.00, 0.00, -0.00, -1.00, 463.1, 633.4)">S</text><text xml:space="preserve" font-family="Helvetica-Light,Helvetica" font-size="80.0" fill="#00A6AC" transform="matrix(1.00, 0.00, -0.00, -1.00, 512.0, 633.4)">c</text><text xml:space="preserve" font-family="Helvetica-Light,Helvetica" font-size="80.0" fill="#00A6AC" transform="matrix(1.00, 0.00, -0.00, -1.00, 556.5, 633.4)">h</text><text xml:space="preserve" font-family="Helvetica-Light,Helvetica" font-size="80.0" fill="#00A6AC" transform="matrix(1.00, 0.00, -0.00, -1.00, 601.0, 633.4)">e</text><text xml:space="preserve" font-family="Helvetica-Light,Helvetica" font-size="80.0" fill="#00A6AC" transform="matrix(1.00, 0.00, -0.00, -1.00, 645.4, 633.4)">m</text><text xml:space="preserve" font-family="Helvetica-Light,Helvetica" font-size="80.0" fill="#00A6AC" transform="matrix(1.00, 0.00, -0.00, -1.00, 712.1, 633.4)">a</text><text xml:space="preserve" font-family="Helvetica-Light,Helvetica" font-size="38.0" fill="#FEFFFF" transform="matrix(1.00, 0.00, -0.00, -1.00, 223.9, 416.7)">v</text><text xml:space="preserve" font-family="Helvetica-Light,Helvetica" font-size="38.0" fill="#FEFFFF" transform="matrix(1.00, 0.00, -0.00, -1.00, 242.9, 416.7)">a</text><text xml:space="preserve" font-family="Helvetica-Light,Helvetica" font-size="38.0" fill="#FEFFFF" transform="matrix(1.00, 0.00, -0.00, -1.00, 264.0, 416.7)">r</text><text xml:space="preserve" font-family="Helvetica-Light,Helvetica" font-size="38.0" fill="#FEFFFF" transform="matrix(1.00, 0.00, -0.00, -1.00, 276.6, 416.7)"> </text><text xml:space="preserve" font-family="Helvetica-Light,Helvetica" font-size="38.0" fill="#FEFFFF" transform="matrix(1.00, 0.00, -0.00, -1.00, 287.2, 416.7)">L</text><text xml:space="preserve" font-family="Helvetica-Light,Helvetica" font-size="38.0" fill="#FEFFFF" transform="matrix(1.00, 0.00, -0.00, -1.00, 308.3, 416.7)">o</text><text xml:space="preserve" font-family="Helvetica-Light,Helvetica" font-size="38.0" fill="#FEFFFF" transform="matrix(1.00, 0.00, -0.00, -1.00, 329.5, 416.7)">o</text><text xml:space="preserve" font-family="Helvetica-Light,Helvetica" font-size="38.0" fill="#FEFFFF" transform="matrix(1.00, 0.00, -0.00, -1.00, 350.6, 416.7)">k</text><text xml:space="preserve" font-family="Helvetica-Light,Helvetica" font-size="38.0" fill="#FEFFFF" transform="matrix(1.00, 0.00, -0.00, -1.00, 369.6, 416.7)">S</text><text xml:space="preserve" font-family="Helvetica-Light,Helvetica" font-size="38.0" fill="#FEFFFF" transform="matrix(1.00, 0.00, -0.00, -1.00, 392.8, 416.7)">c</text><text xml:space="preserve" font-family="Helvetica-Light,Helvetica" font-size="38.0" fill="#FEFFFF" transform="matrix(1.00, 0.00, -0.00, -1.00, 413.9, 416.7)">h</text><text xml:space="preserve" font-family="Helvetica-Light,Helvetica" font-size="38.0" fill="#FEFFFF" transform="matrix(1.00, 0.00, -0.00, -1.00, 435.1, 416.7)">e</text><text xml:space="preserve" font-family="Helvetica-Light,Helvetica" font-size="38.0" fill="#FEFFFF" transform="matrix(1.00, 0.00, -0.00, -1.00, 456.2, 416.7)">m</text><text xml:space="preserve" font-family="Helvetica-Light,Helvetica" font-size="38.0" fill="#FEFFFF" transform="matrix(1.00, 0.00, -0.00, -1.00, 487.9, 416.7)">a</text><text xml:space="preserve" font-family="Helvetica-Light,Helvetica" font-size="38.0" fill="#FEFFFF" transform="matrix(1.00, 0.00, -0.00, -1.00, 509.0, 416.7)"> </text><text xml:space="preserve" font-family="Helvetica-Light,Helvetica" font-size="38.0" fill="#FEFFFF" transform="matrix(1.00, 0.00, -0.00, -1.00, 519.5, 416.7)">=</text><text xml:space="preserve" font-family="Helvetica-Light,Helvetica" font-size="38.0" fill="#FEFFFF" transform="matrix(1.00, 0.00, -0.00, -1.00, 544.6, 416.7)"> </text><text xml:space="preserve" font-family="Helvetica-Light,Helvetica" font-size="38.0" fill="#FEFFFF" transform="matrix(1.00, 0.00, -0.00, -1.00, 555.2, 416.7)">n</text><text xml:space="preserve" font-family="Helvetica-Light,Helvetica" font-size="38.0" fill="#FEFFFF" transform="matrix(1.00, 0.00, -0.00, -1.00, 576.3, 416.7)">e</text><text xml:space="preserve" font-family="Helvetica-Light,Helvetica" font-size="38.0" fill="#FEFFFF" transform="matrix(1.00, 0.00, -0.00, -1.00, 597.4, 416.7)">w</text><text xml:space="preserve" font-family="Helvetica-Light,Helvetica" font-size="38.0" fill="#FEFFFF" transform="matrix(1.00, 0.00, -0.00, -1.00, 624.9, 416.7)"> </text><text xml:space="preserve" font-family="Helvetica-Light,Helvetica" font-size="38.0" fill="#FEFFFF" transform="matrix(1.00, 0.00, -0.00, -1.00, 635.4, 416.7)">S</text><text xml:space="preserve" font-family="Helvetica-Light,Helvetica" font-size="38.0" fill="#FEFFFF" transform="matrix(1.00, 0.00, -0.00, -1.00, 658.7, 416.7)">c</text><text xml:space="preserve" font-family="Helvetica-Light,Helvetica" font-size="38.0" fill="#FEFFFF" transform="matrix(1.00, 0.00, -0.00, -1.00, 679.8, 416.7)">h</text><text xml:space="preserve" font-family="Helvetica-Light,Helvetica" font-size="38.0" fill="#FEFFFF" transform="matrix(1.00, 0.00, -0.00, -1.00, 700.9, 416.7)">e</text><text xml:space="preserve" font-family="Helvetica-Light,Helvetica" font-size="38.0" fill="#FEFFFF" transform="matrix(1.00, 0.00, -0.00, -1.00, 722.0, 416.7)">m</text><text xml:space="preserve" font-family="Helvetica-Light,Helvetica" font-size="38.0" fill="#FEFFFF" transform="matrix(1.00, 0.00, -0.00, -1.00, 753.7, 416.7)">a</text><text xml:space="preserve" font-family="Helvetica-Light,Helvetica" font-size="38.0" fill="#FEFFFF" transform="matrix(1.00, 0.00, -0.00, -1.00, 774.8, 416.7)">(</text><text xml:space="preserve" font-family="Helvetica-Light,Helvetica" font-size="38.0" fill="#FEFFFF" transform="matrix(1.00, 0.00, -0.00, -1.00, 787.5, 416.7)">{</text><text xml:space="preserve" font-family="Helvetica-Light,Helvetica" font-size="38.0" fill="#FEFFFF" transform="matrix(1.00, 0.00, -0.00, -1.00, 800.1, 416.7)"> </text><text xml:space="preserve" font-family="Helvetica-Light,Helvetica" font-size="38.0" fill="#FEFFFF" transform="matrix(1.00, 0.00, -0.00, -1.00, 140.0, 370.7)"> </text><text xml:space="preserve" font-family="Helvetica-Light,Helvetica" font-size="38.0" fill="#FEFFFF" transform="matrix(1.00, 0.00, -0.00, -1.00, 150.5, 370.7)"> </text><text xml:space="preserve" font-family="Helvetica-Light,Helvetica" font-size="38.0" fill="#FEFFFF" transform="matrix(1.00, 0.00, -0.00, -1.00, 161.1, 370.7)">u</text><text xml:space="preserve" font-family="Helvetica-Light,Helvetica" font-size="38.0" fill="#FEFFFF" transform="matrix(1.00, 0.00, -0.00, -1.00, 182.2, 370.7)">r</text><text xml:space="preserve" font-family="Helvetica-Light,Helvetica" font-size="38.0" fill="#FEFFFF" transform="matrix(1.00, 0.00, -0.00, -1.00, 194.9, 370.7)">l</text><text xml:space="preserve" font-family="Helvetica-Light,Helvetica" font-size="38.0" fill="#FEFFFF" transform="matrix(1.00, 0.00, -0.00, -1.00, 203.3, 370.7)">:</text><text xml:space="preserve" font-family="Helvetica-Light,Helvetica" font-size="38.0" fill="#FEFFFF" transform="matrix(1.00, 0.00, -0.00, -1.00, 213.9, 370.7)"> </text><text xml:space="preserve" font-family="Helvetica-Light,Helvetica" font-size="38.0" fill="#FEFFFF" transform="matrix(1.00, 0.00, -0.00, -1.00, 224.4, 370.7)">{</text><text xml:space="preserve" font-family="Helvetica-Light,Helvetica" font-size="38.0" fill="#FEFFFF" transform="matrix(1.00, 0.00, -0.00, -1.00, 237.1, 370.7)">t</text><text xml:space="preserve" font-family="Helvetica-Light,Helvetica" font-size="38.0" fill="#FEFFFF" transform="matrix(1.00, 0.00, -0.00, -1.00, 247.7, 370.7)">y</text><text xml:space="preserve" font-family="Helvetica-Light,Helvetica" font-size="38.0" fill="#FEFFFF" transform="matrix(1.00, 0.00, -0.00, -1.00, 266.7, 370.7)">p</text><text xml:space="preserve" font-family="Helvetica-Light,Helvetica" font-size="38.0" fill="#FEFFFF" transform="matrix(1.00, 0.00, -0.00, -1.00, 289.9, 370.7)">e</text><text xml:space="preserve" font-family="Helvetica-Light,Helvetica" font-size="38.0" fill="#FEFFFF" transform="matrix(1.00, 0.00, -0.00, -1.00, 311.0, 370.7)">:</text><text xml:space="preserve" font-family="Helvetica-Light,Helvetica" font-size="38.0" fill="#FEFFFF" transform="matrix(1.00, 0.00, -0.00, -1.00, 321.6, 370.7)"> </text><text xml:space="preserve" font-family="Helvetica-Light,Helvetica" font-size="38.0" fill="#FEFFFF" transform="matrix(1.00, 0.00, -0.00, -1.00, 332.1, 370.7)">S</text><text xml:space="preserve" font-family="Helvetica-Light,Helvetica" font-size="38.0" fill="#FEFFFF" transform="matrix(1.00, 0.00, -0.00, -1.00, 355.3, 370.7)">t</text><text xml:space="preserve" font-family="Helvetica-Light,Helvetica" font-size="38.0" fill="#FEFFFF" transform="matrix(1.00, 0.00, -0.00, -1.00, 365.9, 370.7)">r</text><text xml:space="preserve" font-family="Helvetica-Light,Helvetica" font-size="38.0" fill="#FEFFFF" transform="matrix(1.00, 0.00, -0.00, -1.00, 378.6, 370.7)">i</text><text xml:space="preserve" font-family="Helvetica-Light,Helvetica" font-size="38.0" fill="#FEFFFF" transform="matrix(1.00, 0.00, -0.00, -1.00, 387.0, 370.7)">n</text><text xml:space="preserve" font-family="Helvetica-Light,Helvetica" font-size="38.0" fill="#FEFFFF" transform="matrix(1.00, 0.00, -0.00, -1.00, 408.1, 370.7)">g</text><text xml:space="preserve" font-family="Helvetica-Light,Helvetica" font-size="38.0" fill="#FEFFFF" transform="matrix(1.00, 0.00, -0.00, -1.00, 431.3, 370.7)">,</text><text xml:space="preserve" font-family="Helvetica-Light,Helvetica" font-size="38.0" fill="#FEFFFF" transform="matrix(1.00, 0.00, -0.00, -1.00, 441.9, 370.7)"> </text><text xml:space="preserve" font-family="Helvetica-Light,Helvetica" font-size="38.0" fill="#FEFFFF" transform="matrix(1.00, 0.00, -0.00, -1.00, 452.5, 370.7)">d</text><text xml:space="preserve" font-family="Helvetica-Light,Helvetica" font-size="38.0" fill="#FEFFFF" transform="matrix(1.00, 0.00, -0.00, -1.00, 475.7, 370.7)">e</text><text xml:space="preserve" font-family="Helvetica-Light,Helvetica" font-size="38.0" fill="#FEFFFF" transform="matrix(1.00, 0.00, -0.00, -1.00, 496.8, 370.7)">f</text><text xml:space="preserve" font-family="Helvetica-Light,Helvetica" font-size="38.0" fill="#FEFFFF" transform="matrix(1.00, 0.00, -0.00, -1.00, 507.4, 370.7)">a</text><text xml:space="preserve" font-family="Helvetica-Light,Helvetica" font-size="38.0" fill="#FEFFFF" transform="matrix(1.00, 0.00, -0.00, -1.00, 528.5, 370.7)">u</text><text xml:space="preserve" font-family="Helvetica-Light,Helvetica" font-size="38.0" fill="#FEFFFF" transform="matrix(1.00, 0.00, -0.00, -1.00, 549.6, 370.7)">l</text><text xml:space="preserve" font-family="Helvetica-Light,Helvetica" font-size="38.0" fill="#FEFFFF" transform="matrix(1.00, 0.00, -0.00, -1.00, 558.1, 370.7)">t</text><text xml:space="preserve" font-family="Helvetica-Light,Helvetica" font-size="38.0" fill="#FEFFFF" transform="matrix(1.00, 0.00, -0.00, -1.00, 568.6, 370.7)">:</text><text xml:space="preserve" font-family="Helvetica-Light,Helvetica" font-size="38.0" fill="#FEFFFF" transform="matrix(1.00, 0.00, -0.00, -1.00, 579.2, 370.7)">"</text><text xml:space="preserve" font-family="Helvetica-Light,Helvetica" font-size="38.0" fill="#FEFFFF" transform="matrix(1.00, 0.00, -0.00, -1.00, 589.8, 370.7)">"</text><text xml:space="preserve" font-family="Helvetica-Light,Helvetica" font-size="38.0" fill="#FEFFFF" transform="matrix(1.00, 0.00, -0.00, -1.00, 600.3, 370.7)">,</text><text xml:space="preserve" font-family="Helvetica-Light,Helvetica" font-size="38.0" fill="#FEFFFF" transform="matrix(1.00, 0.00, -0.00, -1.00, 610.9, 370.7)"> </text><text xml:space="preserve" font-family="Helvetica-Light,Helvetica" font-size="38.0" fill="#FEFFFF" transform="matrix(1.00, 0.00, -0.00, -1.00, 621.5, 370.7)">r</text><text xml:space="preserve" font-family="Helvetica-Light,Helvetica" font-size="38.0" fill="#FEFFFF" transform="matrix(1.00, 0.00, -0.00, -1.00, 633.4, 370.7)">e</text><text xml:space="preserve" font-family="Helvetica-Light,Helvetica" font-size="38.0" fill="#FEFFFF" transform="matrix(1.00, 0.00, -0.00, -1.00, 654.6, 370.7)">q</text><text xml:space="preserve" font-family="Helvetica-Light,Helvetica" font-size="38.0" fill="#FEFFFF" transform="matrix(1.00, 0.00, -0.00, -1.00, 677.8, 370.7)">u</text><text xml:space="preserve" font-family="Helvetica-Light,Helvetica" font-size="38.0" fill="#FEFFFF" transform="matrix(1.00, 0.00, -0.00, -1.00, 698.9, 370.7)">i</text><text xml:space="preserve" font-family="Helvetica-Light,Helvetica" font-size="38.0" fill="#FEFFFF" transform="matrix(1.00, 0.00, -0.00, -1.00, 707.3, 370.7)">r</text><text xml:space="preserve" font-family="Helvetica-Light,Helvetica" font-size="38.0" fill="#FEFFFF" transform="matrix(1.00, 0.00, -0.00, -1.00, 719.3, 370.7)">e</text><text xml:space="preserve" font-family="Helvetica-Light,Helvetica" font-size="38.0" fill="#FEFFFF" transform="matrix(1.00, 0.00, -0.00, -1.00, 740.4, 370.7)">d</text><text xml:space="preserve" font-family="Helvetica-Light,Helvetica" font-size="38.0" fill="#FEFFFF" transform="matrix(1.00, 0.00, -0.00, -1.00, 763.7, 370.7)">:</text><text xml:space="preserve" font-family="Helvetica-Light,Helvetica" font-size="38.0" fill="#FEFFFF" transform="matrix(1.00, 0.00, -0.00, -1.00, 774.2, 370.7)"> </text><text xml:space="preserve" font-family="Helvetica-Light,Helvetica" font-size="38.0" fill="#FEFFFF" transform="matrix(1.00, 0.00, -0.00, -1.00, 784.8, 370.7)">t</text><text xml:space="preserve" font-family="Helvetica-Light,Helvetica" font-size="38.0" fill="#FEFFFF" transform="matrix(1.00, 0.00, -0.00, -1.00, 795.3, 370.7)">r</text><text xml:space="preserve" font-family="Helvetica-Light,Helvetica" font-size="38.0" fill="#FEFFFF" transform="matrix(1.00, 0.00, -0.00, -1.00, 808.0, 370.7)">u</text><text xml:space="preserve" font-family="Helvetica-Light,Helvetica" font-size="38.0" fill="#FEFFFF" transform="matrix(1.00, 0.00, -0.00, -1.00, 829.1, 370.7)">e</text><text xml:space="preserve" font-family="Helvetica-Light,Helvetica" font-size="38.0" fill="#FEFFFF" transform="matrix(1.00, 0.00, -0.00, -1.00, 850.3, 370.7)"> </text><text xml:space="preserve" font-family="Helvetica-Light,Helvetica" font-size="38.0" fill="#FEFFFF" transform="matrix(1.00, 0.00, -0.00, -1.00, 860.8, 370.7)">}</text><text xml:space="preserve" font-family="Helvetica-Light,Helvetica" font-size="38.0" fill="#FEFFFF" transform="matrix(1.00, 0.00, -0.00, -1.00, 873.5, 370.7)">,</text><text xml:space="preserve" font-family="Helvetica-Light,Helvetica" font-size="38.0" fill="#FEFFFF" transform="matrix(1.00, 0.00, -0.00, -1.00, 884.0, 370.7)"> </text><text xml:space="preserve" font-family="Helvetica-Light,Helvetica" font-size="38.0" fill="#FEFFFF" transform="matrix(1.00, 0.00, -0.00, -1.00, 129.4, 324.7)"> </text><text xml:space="preserve" font-family="Helvetica-Light,Helvetica" font-size="38.0" fill="#FEFFFF" transform="matrix(1.00, 0.00, -0.00, -1.00, 140.0, 324.7)"> </text><text xml:space="preserve" font-family="Helvetica-Light,Helvetica" font-size="38.0" fill="#FEFFFF" transform="matrix(1.00, 0.00, -0.00, -1.00, 150.5, 324.7)">t</text><text xml:space="preserve" font-family="Helvetica-Light,Helvetica" font-size="38.0" fill="#FEFFFF" transform="matrix(1.00, 0.00, -0.00, -1.00, 161.1, 324.7)">y</text><text xml:space="preserve" font-family="Helvetica-Light,Helvetica" font-size="38.0" fill="#FEFFFF" transform="matrix(1.00, 0.00, -0.00, -1.00, 180.1, 324.7)">p</text><text xml:space="preserve" font-family="Helvetica-Light,Helvetica" font-size="38.0" fill="#FEFFFF" transform="matrix(1.00, 0.00, -0.00, -1.00, 203.3, 324.7)">e</text><text xml:space="preserve" font-family="Helvetica-Light,Helvetica" font-size="38.0" fill="#FEFFFF" transform="matrix(1.00, 0.00, -0.00, -1.00, 224.4, 324.7)">:</text><text xml:space="preserve" font-family="Helvetica-Light,Helvetica" font-size="38.0" fill="#FEFFFF" transform="matrix(1.00, 0.00, -0.00, -1.00, 235.0, 324.7)"> </text><text xml:space="preserve" font-family="Helvetica-Light,Helvetica" font-size="38.0" fill="#FEFFFF" transform="matrix(1.00, 0.00, -0.00, -1.00, 245.6, 324.7)">{</text><text xml:space="preserve" font-family="Helvetica-Light,Helvetica" font-size="38.0" fill="#FEFFFF" transform="matrix(1.00, 0.00, -0.00, -1.00, 258.2, 324.7)">t</text><text xml:space="preserve" font-family="Helvetica-Light,Helvetica" font-size="38.0" fill="#FEFFFF" transform="matrix(1.00, 0.00, -0.00, -1.00, 268.8, 324.7)">y</text><text xml:space="preserve" font-family="Helvetica-Light,Helvetica" font-size="38.0" fill="#FEFFFF" transform="matrix(1.00, 0.00, -0.00, -1.00, 287.8, 324.7)">p</text><text xml:space="preserve" font-family="Helvetica-Light,Helvetica" font-size="38.0" fill="#FEFFFF" transform="matrix(1.00, 0.00, -0.00, -1.00, 311.0, 324.7)">e</text><text xml:space="preserve" font-family="Helvetica-Light,Helvetica" font-size="38.0" fill="#FEFFFF" transform="matrix(1.00, 0.00, -0.00, -1.00, 332.1, 324.7)">:</text><text xml:space="preserve" font-family="Helvetica-Light,Helvetica" font-size="38.0" fill="#FEFFFF" transform="matrix(1.00, 0.00, -0.00, -1.00, 342.7, 324.7)"> </text><text xml:space="preserve" font-family="Helvetica-Light,Helvetica" font-size="38.0" fill="#FEFFFF" transform="matrix(1.00, 0.00, -0.00, -1.00, 353.3, 324.7)">S</text><text xml:space="preserve" font-family="Helvetica-Light,Helvetica" font-size="38.0" fill="#FEFFFF" transform="matrix(1.00, 0.00, -0.00, -1.00, 376.5, 324.7)">t</text><text xml:space="preserve" font-family="Helvetica-Light,Helvetica" font-size="38.0" fill="#FEFFFF" transform="matrix(1.00, 0.00, -0.00, -1.00, 387.0, 324.7)">r</text><text xml:space="preserve" font-family="Helvetica-Light,Helvetica" font-size="38.0" fill="#FEFFFF" transform="matrix(1.00, 0.00, -0.00, -1.00, 399.7, 324.7)">i</text><text xml:space="preserve" font-family="Helvetica-Light,Helvetica" font-size="38.0" fill="#FEFFFF" transform="matrix(1.00, 0.00, -0.00, -1.00, 408.1, 324.7)">n</text><text xml:space="preserve" font-family="Helvetica-Light,Helvetica" font-size="38.0" fill="#FEFFFF" transform="matrix(1.00, 0.00, -0.00, -1.00, 429.3, 324.7)">g</text><text xml:space="preserve" font-family="Helvetica-Light,Helvetica" font-size="38.0" fill="#FEFFFF" transform="matrix(1.00, 0.00, -0.00, -1.00, 452.5, 324.7)">,</text><text xml:space="preserve" font-family="Helvetica-Light,Helvetica" font-size="38.0" fill="#FEFFFF" transform="matrix(1.00, 0.00, -0.00, -1.00, 463.0, 324.7)"> </text><text xml:space="preserve" font-family="Helvetica-Light,Helvetica" font-size="38.0" fill="#FEFFFF" transform="matrix(1.00, 0.00, -0.00, -1.00, 473.6, 324.7)">d</text><text xml:space="preserve" font-family="Helvetica-Light,Helvetica" font-size="38.0" fill="#FEFFFF" transform="matrix(1.00, 0.00, -0.00, -1.00, 496.8, 324.7)">e</text><text xml:space="preserve" font-family="Helvetica-Light,Helvetica" font-size="38.0" fill="#FEFFFF" transform="matrix(1.00, 0.00, -0.00, -1.00, 517.9, 324.7)">f</text><text xml:space="preserve" font-family="Helvetica-Light,Helvetica" font-size="38.0" fill="#FEFFFF" transform="matrix(1.00, 0.00, -0.00, -1.00, 528.5, 324.7)">a</text><text xml:space="preserve" font-family="Helvetica-Light,Helvetica" font-size="38.0" fill="#FEFFFF" transform="matrix(1.00, 0.00, -0.00, -1.00, 549.6, 324.7)">u</text><text xml:space="preserve" font-family="Helvetica-Light,Helvetica" font-size="38.0" fill="#FEFFFF" transform="matrix(1.00, 0.00, -0.00, -1.00, 570.8, 324.7)">l</text><text xml:space="preserve" font-family="Helvetica-Light,Helvetica" font-size="38.0" fill="#FEFFFF" transform="matrix(1.00, 0.00, -0.00, -1.00, 579.2, 324.7)">t</text><text xml:space="preserve" font-family="Helvetica-Light,Helvetica" font-size="38.0" fill="#FEFFFF" transform="matrix(1.00, 0.00, -0.00, -1.00, 589.8, 324.7)">:</text><text xml:space="preserve" font-family="Helvetica-Light,Helvetica" font-size="38.0" fill="#FEFFFF" transform="matrix(1.00, 0.00, -0.00, -1.00, 600.3, 324.7)">"</text><text xml:space="preserve" font-family="Helvetica-Light,Helvetica" font-size="38.0" fill="#FEFFFF" transform="matrix(1.00, 0.00, -0.00, -1.00, 610.9, 324.7)">"</text><text xml:space="preserve" font-family="Helvetica-Light,Helvetica" font-size="38.0" fill="#FEFFFF" transform="matrix(1.00, 0.00, -0.00, -1.00, 621.5, 324.7)">,</text><text xml:space="preserve" font-family="Helvetica-Light,Helvetica" font-size="38.0" fill="#FEFFFF" transform="matrix(1.00, 0.00, -0.00, -1.00, 632.0, 324.7)"> </text><text xml:space="preserve" font-family="Helvetica-Light,Helvetica" font-size="38.0" fill="#FEFFFF" transform="matrix(1.00, 0.00, -0.00, -1.00, 642.6, 324.7)">r</text><text xml:space="preserve" font-family="Helvetica-Light,Helvetica" font-size="38.0" fill="#FEFFFF" transform="matrix(1.00, 0.00, -0.00, -1.00, 654.6, 324.7)">e</text><text xml:space="preserve" font-family="Helvetica-Light,Helvetica" font-size="38.0" fill="#FEFFFF" transform="matrix(1.00, 0.00, -0.00, -1.00, 675.7, 324.7)">q</text><text xml:space="preserve" font-family="Helvetica-Light,Helvetica" font-size="38.0" fill="#FEFFFF" transform="matrix(1.00, 0.00, -0.00, -1.00, 698.9, 324.7)">u</text><text xml:space="preserve" font-family="Helvetica-Light,Helvetica" font-size="38.0" fill="#FEFFFF" transform="matrix(1.00, 0.00, -0.00, -1.00, 720.0, 324.7)">i</text><text xml:space="preserve" font-family="Helvetica-Light,Helvetica" font-size="38.0" fill="#FEFFFF" transform="matrix(1.00, 0.00, -0.00, -1.00, 728.5, 324.7)">r</text><text xml:space="preserve" font-family="Helvetica-Light,Helvetica" font-size="38.0" fill="#FEFFFF" transform="matrix(1.00, 0.00, -0.00, -1.00, 740.4, 324.7)">e</text><text xml:space="preserve" font-family="Helvetica-Light,Helvetica" font-size="38.0" fill="#FEFFFF" transform="matrix(1.00, 0.00, -0.00, -1.00, 761.6, 324.7)">d</text><text xml:space="preserve" font-family="Helvetica-Light,Helvetica" font-size="38.0" fill="#FEFFFF" transform="matrix(1.00, 0.00, -0.00, -1.00, 784.8, 324.7)">:</text><text xml:space="preserve" font-family="Helvetica-Light,Helvetica" font-size="38.0" fill="#FEFFFF" transform="matrix(1.00, 0.00, -0.00, -1.00, 795.3, 324.7)"> </text><text xml:space="preserve" font-family="Helvetica-Light,Helvetica" font-size="38.0" fill="#FEFFFF" transform="matrix(1.00, 0.00, -0.00, -1.00, 805.9, 324.7)">t</text><text xml:space="preserve" font-family="Helvetica-Light,Helvetica" font-size="38.0" fill="#FEFFFF" transform="matrix(1.00, 0.00, -0.00, -1.00, 816.5, 324.7)">r</text><text xml:space="preserve" font-family="Helvetica-Light,Helvetica" font-size="38.0" fill="#FEFFFF" transform="matrix(1.00, 0.00, -0.00, -1.00, 829.1, 324.7)">u</text><text xml:space="preserve" font-family="Helvetica-Light,Helvetica" font-size="38.0" fill="#FEFFFF" transform="matrix(1.00, 0.00, -0.00, -1.00, 850.3, 324.7)">e</text><text xml:space="preserve" font-family="Helvetica-Light,Helvetica" font-size="38.0" fill="#FEFFFF" transform="matrix(1.00, 0.00, -0.00, -1.00, 871.4, 324.7)">}</text><text xml:space="preserve" font-family="Helvetica-Light,Helvetica" font-size="38.0" fill="#FEFFFF" transform="matrix(1.00, 0.00, -0.00, -1.00, 884.0, 324.7)">,</text><text xml:space="preserve" font-family="Helvetica-Light,Helvetica" font-size="38.0" fill="#FEFFFF" transform="matrix(1.00, 0.00, -0.00, -1.00, 894.6, 324.7)"> </text><text xml:space="preserve" font-family="Helvetica-Light,Helvetica" font-size="38.0" fill="#FEFFFF" transform="matrix(1.00, 0.00, -0.00, -1.00, 125.8, 278.7)"> </text><text xml:space="preserve" font-family="Helvetica-Light,Helvetica" font-size="38.0" fill="#FEFFFF" transform="matrix(1.00, 0.00, -0.00, -1.00, 136.4, 278.7)"> </text><text xml:space="preserve" font-family="Helvetica-Light,Helvetica" font-size="38.0" fill="#FEFFFF" transform="matrix(1.00, 0.00, -0.00, -1.00, 147.0, 278.7)">c</text><text xml:space="preserve" font-family="Helvetica-Light,Helvetica" font-size="38.0" fill="#FEFFFF" transform="matrix(1.00, 0.00, -0.00, -1.00, 168.1, 278.7)">r</text><text xml:space="preserve" font-family="Helvetica-Light,Helvetica" font-size="38.0" fill="#FEFFFF" transform="matrix(1.00, 0.00, -0.00, -1.00, 180.1, 278.7)">e</text><text xml:space="preserve" font-family="Helvetica-Light,Helvetica" font-size="38.0" fill="#FEFFFF" transform="matrix(1.00, 0.00, -0.00, -1.00, 201.2, 278.7)">a</text><text xml:space="preserve" font-family="Helvetica-Light,Helvetica" font-size="38.0" fill="#FEFFFF" transform="matrix(1.00, 0.00, -0.00, -1.00, 222.3, 278.7)">t</text><text xml:space="preserve" font-family="Helvetica-Light,Helvetica" font-size="38.0" fill="#FEFFFF" transform="matrix(1.00, 0.00, -0.00, -1.00, 232.9, 278.7)">e</text><text xml:space="preserve" font-family="Helvetica-Light,Helvetica" font-size="38.0" fill="#FEFFFF" transform="matrix(1.00, 0.00, -0.00, -1.00, 254.0, 278.7)">d</text><text xml:space="preserve" font-family="Helvetica-Light,Helvetica" font-size="38.0" fill="#FEFFFF" transform="matrix(1.00, 0.00, -0.00, -1.00, 277.2, 278.7)">D</text><text xml:space="preserve" font-family="Helvetica-Light,Helvetica" font-size="38.0" fill="#FEFFFF" transform="matrix(1.00, 0.00, -0.00, -1.00, 304.7, 278.7)">a</text><text xml:space="preserve" font-family="Helvetica-Light,Helvetica" font-size="38.0" fill="#FEFFFF" transform="matrix(1.00, 0.00, -0.00, -1.00, 325.8, 278.7)">t</text><text xml:space="preserve" font-family="Helvetica-Light,Helvetica" font-size="38.0" fill="#FEFFFF" transform="matrix(1.00, 0.00, -0.00, -1.00, 336.4, 278.7)">e</text><text xml:space="preserve" font-family="Helvetica-Light,Helvetica" font-size="38.0" fill="#FEFFFF" transform="matrix(1.00, 0.00, -0.00, -1.00, 357.5, 278.7)">:</text><text xml:space="preserve" font-family="Helvetica-Light,Helvetica" font-size="38.0" fill="#FEFFFF" transform="matrix(1.00, 0.00, -0.00, -1.00, 368.1, 278.7)"> </text><text xml:space="preserve" font-family="Helvetica-Light,Helvetica" font-size="38.0" fill="#FEFFFF" transform="matrix(1.00, 0.00, -0.00, -1.00, 378.6, 278.7)">{</text><text xml:space="preserve" font-family="Helvetica-Light,Helvetica" font-size="38.0" fill="#FEFFFF" transform="matrix(1.00, 0.00, -0.00, -1.00, 391.3, 278.7)">t</text><text xml:space="preserve" font-family="Helvetica-Light,Helvetica" font-size="38.0" fill="#FEFFFF" transform="matrix(1.00, 0.00, -0.00, -1.00, 401.8, 278.7)">y</text><text xml:space="preserve" font-family="Helvetica-Light,Helvetica" font-size="38.0" fill="#FEFFFF" transform="matrix(1.00, 0.00, -0.00, -1.00, 420.8, 278.7)">p</text><text xml:space="preserve" font-family="Helvetica-Light,Helvetica" font-size="38.0" fill="#FEFFFF" transform="matrix(1.00, 0.00, -0.00, -1.00, 444.1, 278.7)">e</text><text xml:space="preserve" font-family="Helvetica-Light,Helvetica" font-size="38.0" fill="#FEFFFF" transform="matrix(1.00, 0.00, -0.00, -1.00, 465.2, 278.7)">:</text><text xml:space="preserve" font-family="Helvetica-Light,Helvetica" font-size="38.0" fill="#FEFFFF" transform="matrix(1.00, 0.00, -0.00, -1.00, 475.7, 278.7)"> </text><text xml:space="preserve" font-family="Helvetica-Light,Helvetica" font-size="38.0" fill="#FEFFFF" transform="matrix(1.00, 0.00, -0.00, -1.00, 486.3, 278.7)">D</text><text xml:space="preserve" font-family="Helvetica-Light,Helvetica" font-size="38.0" fill="#FEFFFF" transform="matrix(1.00, 0.00, -0.00, -1.00, 513.7, 278.7)">a</text><text xml:space="preserve" font-family="Helvetica-Light,Helvetica" font-size="38.0" fill="#FEFFFF" transform="matrix(1.00, 0.00, -0.00, -1.00, 534.9, 278.7)">t</text><text xml:space="preserve" font-family="Helvetica-Light,Helvetica" font-size="38.0" fill="#FEFFFF" transform="matrix(1.00, 0.00, -0.00, -1.00, 545.4, 278.7)">e</text><text xml:space="preserve" font-family="Helvetica-Light,Helvetica" font-size="38.0" fill="#FEFFFF" transform="matrix(1.00, 0.00, -0.00, -1.00, 566.6, 278.7)">,</text><text xml:space="preserve" font-family="Helvetica-Light,Helvetica" font-size="38.0" fill="#FEFFFF" transform="matrix(1.00, 0.00, -0.00, -1.00, 577.1, 278.7)"> </text><text xml:space="preserve" font-family="Helvetica-Light,Helvetica" font-size="38.0" fill="#FEFFFF" transform="matrix(1.00, 0.00, -0.00, -1.00, 587.7, 278.7)">d</text><text xml:space="preserve" font-family="Helvetica-Light,Helvetica" font-size="38.0" fill="#FEFFFF" transform="matrix(1.00, 0.00, -0.00, -1.00, 610.9, 278.7)">e</text><text xml:space="preserve" font-family="Helvetica-Light,Helvetica" font-size="38.0" fill="#FEFFFF" transform="matrix(1.00, 0.00, -0.00, -1.00, 632.0, 278.7)">f</text><text xml:space="preserve" font-family="Helvetica-Light,Helvetica" font-size="38.0" fill="#FEFFFF" transform="matrix(1.00, 0.00, -0.00, -1.00, 642.6, 278.7)">a</text><text xml:space="preserve" font-family="Helvetica-Light,Helvetica" font-size="38.0" fill="#FEFFFF" transform="matrix(1.00, 0.00, -0.00, -1.00, 663.7, 278.7)">u</text><text xml:space="preserve" font-family="Helvetica-Light,Helvetica" font-size="38.0" fill="#FEFFFF" transform="matrix(1.00, 0.00, -0.00, -1.00, 684.9, 278.7)">l</text><text xml:space="preserve" font-family="Helvetica-Light,Helvetica" font-size="38.0" fill="#FEFFFF" transform="matrix(1.00, 0.00, -0.00, -1.00, 693.3, 278.7)">t</text><text xml:space="preserve" font-family="Helvetica-Light,Helvetica" font-size="38.0" fill="#FEFFFF" transform="matrix(1.00, 0.00, -0.00, -1.00, 703.9, 278.7)">:</text><text xml:space="preserve" font-family="Helvetica-Light,Helvetica" font-size="38.0" fill="#FEFFFF" transform="matrix(1.00, 0.00, -0.00, -1.00, 714.4, 278.7)"> </text><text xml:space="preserve" font-family="Helvetica-Light,Helvetica" font-size="38.0" fill="#FEFFFF" transform="matrix(1.00, 0.00, -0.00, -1.00, 725.0, 278.7)">D</text><text xml:space="preserve" font-family="Helvetica-Light,Helvetica" font-size="38.0" fill="#FEFFFF" transform="matrix(1.00, 0.00, -0.00, -1.00, 752.4, 278.7)">a</text><text xml:space="preserve" font-family="Helvetica-Light,Helvetica" font-size="38.0" fill="#FEFFFF" transform="matrix(1.00, 0.00, -0.00, -1.00, 773.6, 278.7)">t</text><text xml:space="preserve" font-family="Helvetica-Light,Helvetica" font-size="38.0" fill="#FEFFFF" transform="matrix(1.00, 0.00, -0.00, -1.00, 784.1, 278.7)">e</text><text xml:space="preserve" font-family="Helvetica-Light,Helvetica" font-size="38.0" fill="#FEFFFF" transform="matrix(1.00, 0.00, -0.00, -1.00, 805.2, 278.7)">.</text><text xml:space="preserve" font-family="Helvetica-Light,Helvetica" font-size="38.0" fill="#FEFFFF" transform="matrix(1.00, 0.00, -0.00, -1.00, 815.8, 278.7)">n</text><text xml:space="preserve" font-family="Helvetica-Light,Helvetica" font-size="38.0" fill="#FEFFFF" transform="matrix(1.00, 0.00, -0.00, -1.00, 836.9, 278.7)">o</text><text xml:space="preserve" font-family="Helvetica-Light,Helvetica" font-size="38.0" fill="#FEFFFF" transform="matrix(1.00, 0.00, -0.00, -1.00, 858.1, 278.7)">w</text><text xml:space="preserve" font-family="Helvetica-Light,Helvetica" font-size="38.0" fill="#FEFFFF" transform="matrix(1.00, 0.00, -0.00, -1.00, 885.5, 278.7)">}</text><text xml:space="preserve" font-family="Helvetica-Light,Helvetica" font-size="38.0" fill="#FEFFFF" transform="matrix(1.00, 0.00, -0.00, -1.00, 898.2, 278.7)"> </text><text xml:space="preserve" font-family="Helvetica-Light,Helvetica" font-size="38.0" fill="#FEFFFF" transform="matrix(1.00, 0.00, -0.00, -1.00, 494.1, 232.7)">}</text><text xml:space="preserve" font-family="Helvetica-Light,Helvetica" font-size="38.0" fill="#FEFFFF" transform="matrix(1.00, 0.00, -0.00, -1.00, 506.7, 232.7)">)</text><text xml:space="preserve" font-family="Helvetica-Light,Helvetica" font-size="38.0" fill="#FEFFFF" transform="matrix(1.00, 0.00, -0.00, -1.00, 519.4, 232.7)">;</text><text xml:space="preserve" font-family="Helvetica-Light,Helvetica" font-size="38.0" fill="#FEFFFF" transform="matrix(1.00, 0.00, -0.00, -1.00, 529.9, 232.7)"> </text></g></svg>