<?xml version="1.0" encoding="UTF-8" standalone="no"?><svg xmlns="http://www.w3.org/2000/svg" xmlns:xlink="http://www.w3.org/1999/xlink" clip-rule="evenodd" stroke-miterlimit="10" viewBox="0 0 1024 768"><desc>SVG generated by Keynote</desc><defs></defs><g transform="matrix(1.00, 0.00, -0.00, -1.00, 0.0, 768.0)"><path d="M 0.0 768.0 L 1024.0 768.0 L 1024.0 0.0 L 0.0 0.0 Z M 0.0 768.0 " fill="#000000"></path><text xml:space="preserve" font-family="Helvetica-Light,Helvetica" font-size="80.0" fill="#00A6AC" transform="matrix(1.00, 0.00, -0.00, -1.00, 172.0, 354.4)">S</text><text xml:space="preserve" font-family="Helvetica-Light,Helvetica" font-size="80.0" fill="#00A6AC" transform="matrix(1.00, 0.00, -0.00, -1.00, 220.9, 354.4)">E</text><text xml:space="preserve" font-family="Helvetica-Light,Helvetica" font-size="80.0" fill="#00A6AC" transform="matrix(1.00, 0.00, -0.00, -1.00, 269.8, 354.4)">S</text><text xml:space="preserve" font-family="Helvetica-Light,Helvetica" font-size="80.0" fill="#00A6AC" transform="matrix(1.00, 0.00, -0.00, -1.00, 318.6, 354.4)">S</text><text xml:space="preserve" font-family="Helvetica-Light,Helvetica" font-size="80.0" fill="#00A6AC" transform="matrix(1.00, 0.00, -0.00, -1.00, 367.5, 354.4)">I</text><text xml:space="preserve" font-family="Helvetica-Light,Helvetica" font-size="80.0" fill="#00A6AC" transform="matrix(1.00, 0.00, -0.00, -1.00, 389.8, 354.4)">O</text><text xml:space="preserve" font-family="Helvetica-Light,Helvetica" font-size="80.0" fill="#00A6AC" transform="matrix(1.00, 0.00, -0.00, -1.00, 452.0, 354.4)">N</text><text xml:space="preserve" font-family="Helvetica-Light,Helvetica" font-size="80.0" fill="#00A6AC" transform="matrix(1.00, 0.00, -0.00, -1.00, 509.8, 354.4)">_</text><text xml:space="preserve" font-family="Helvetica-Light,Helvetica" font-size="80.0" fill="#00A6AC" transform="matrix(1.00, 0.00, -0.00, -1.00, 549.8, 354.4)">S</text><text xml:space="preserve" font-family="Helvetica-Light,Helvetica" font-size="80.0" fill="#00A6AC" transform="matrix(1.00, 0.00, -0.00, -1.00, 598.6, 354.4)">E</text><text xml:space="preserve" font-family="Helvetica-Light,Helvetica" font-size="80.0" fill="#00A6AC" transform="matrix(1.00, 0.00, -0.00, -1.00, 647.5, 354.4)">C</text><text xml:space="preserve" font-family="Helvetica-Light,Helvetica" font-size="80.0" fill="#00A6AC" transform="matrix(1.00, 0.00, -0.00, -1.00, 705.3, 354.4)">R</text><text xml:space="preserve" font-family="Helvetica-Light,Helvetica" font-size="80.0" fill="#00A6AC" transform="matrix(1.00, 0.00, -0.00, -1.00, 758.6, 354.4)">E</text><text xml:space="preserve" font-family="Helvetica-Light,Helvetica" font-size="80.0" fill="#00A6AC" transform="matrix(1.00, 0.00, -0.00, -1.00, 807.5, 354.4)">T</text></g></svg>