<?xml version="1.0" encoding="UTF-8" standalone="no"?><svg xmlns="http://www.w3.org/2000/svg" xmlns:xlink="http://www.w3.org/1999/xlink" clip-rule="evenodd" stroke-miterlimit="10" viewBox="0 0 1024 768"><desc>SVG generated by Keynote</desc><defs></defs><g transform="matrix(1.00, 0.00, -0.00, -1.00, 0.0, 768.0)"><path d="M 0.0 768.0 L 1024.0 768.0 L 1024.0 0.0 L 0.0 0.0 Z M 0.0 768.0 " fill="#000000"></path><text xml:space="preserve" font-family="Helvetica-LightOblique,Helvetica" font-style="italic" font-size="24.0" fill="#FEFFFE" transform="matrix(1.00, 0.00, -0.00, -1.00, 354.4, 319.5)">-</text><text xml:space="preserve" font-family="Helvetica-LightOblique,Helvetica" font-style="italic" font-size="24.0" fill="#FEFFFE" transform="matrix(1.00, 0.00, -0.00, -1.00, 362.4, 319.5)">s</text><text xml:space="preserve" font-family="Helvetica-LightOblique,Helvetica" font-style="italic" font-size="24.0" fill="#FEFFFE" transform="matrix(1.00, 0.00, -0.00, -1.00, 374.4, 319.5)">o</text><text xml:space="preserve" font-family="Helvetica-LightOblique,Helvetica" font-style="italic" font-size="24.0" fill="#FEFFFE" transform="matrix(1.00, 0.00, -0.00, -1.00, 387.7, 319.5)">m</text><text xml:space="preserve" font-family="Helvetica-LightOblique,Helvetica" font-style="italic" font-size="24.0" fill="#FEFFFE" transform="matrix(1.00, 0.00, -0.00, -1.00, 407.7, 319.5)">e</text><text xml:space="preserve" font-family="Helvetica-LightOblique,Helvetica" font-style="italic" font-size="24.0" fill="#FEFFFE" transform="matrix(1.00, 0.00, -0.00, -1.00, 421.1, 319.5)"> </text><text xml:space="preserve" font-family="Helvetica-LightOblique,Helvetica" font-style="italic" font-size="24.0" fill="#FEFFFE" transform="matrix(1.00, 0.00, -0.00, -1.00, 427.7, 319.5)">b</text><text xml:space="preserve" font-family="Helvetica-LightOblique,Helvetica" font-style="italic" font-size="24.0" fill="#FEFFFE" transform="matrix(1.00, 0.00, -0.00, -1.00, 442.4, 319.5)">o</text><text xml:space="preserve" font-family="Helvetica-LightOblique,Helvetica" font-style="italic" font-size="24.0" fill="#FEFFFE" transform="matrix(1.00, 0.00, -0.00, -1.00, 455.8, 319.5)">d</text><text xml:space="preserve" font-family="Helvetica-LightOblique,Helvetica" font-style="italic" font-size="24.0" fill="#FEFFFE" transform="matrix(1.00, 0.00, -0.00, -1.00, 470.4, 319.5)">y</text><text xml:space="preserve" font-family="Helvetica-LightOblique,Helvetica" font-style="italic" font-size="24.0" fill="#FEFFFE" transform="matrix(1.00, 0.00, -0.00, -1.00, 482.4, 319.5)"> </text><text xml:space="preserve" font-family="Helvetica-LightOblique,Helvetica" font-style="italic" font-size="24.0" fill="#00A6AC" transform="matrix(1.00, 0.00, -0.00, -1.00, 489.1, 319.5)">s</text><text xml:space="preserve" font-family="Helvetica-LightOblique,Helvetica" font-style="italic" font-size="24.0" fill="#00A6AC" transform="matrix(1.00, 0.00, -0.00, -1.00, 501.1, 319.5)">m</text><text xml:space="preserve" font-family="Helvetica-LightOblique,Helvetica" font-style="italic" font-size="24.0" fill="#00A6AC" transform="matrix(1.00, 0.00, -0.00, -1.00, 521.1, 319.5)">a</text><text xml:space="preserve" font-family="Helvetica-LightOblique,Helvetica" font-style="italic" font-size="24.0" fill="#00A6AC" transform="matrix(1.00, 0.00, -0.00, -1.00, 534.4, 319.5)">r</text><text xml:space="preserve" font-family="Helvetica-LightOblique,Helvetica" font-style="italic" font-size="24.0" fill="#00A6AC" transform="matrix(1.00, 0.00, -0.00, -1.00, 542.9, 319.5)">t</text><text xml:space="preserve" font-family="Helvetica-LightOblique,Helvetica" font-style="italic" font-size="24.0" fill="#00A6AC" transform="matrix(1.00, 0.00, -0.00, -1.00, 549.5, 319.5)">e</text><text xml:space="preserve" font-family="Helvetica-LightOblique,Helvetica" font-style="italic" font-size="24.0" fill="#00A6AC" transform="matrix(1.00, 0.00, -0.00, -1.00, 562.9, 319.5)">r</text><text xml:space="preserve" font-family="Helvetica-LightOblique,Helvetica" font-style="italic" font-size="24.0" fill="#FEFFFE" transform="matrix(1.00, 0.00, -0.00, -1.00, 570.9, 319.5)"> </text><text xml:space="preserve" font-family="Helvetica-LightOblique,Helvetica" font-style="italic" font-size="24.0" fill="#FEFFFE" transform="matrix(1.00, 0.00, -0.00, -1.00, 577.5, 319.5)">t</text><text xml:space="preserve" font-family="Helvetica-LightOblique,Helvetica" font-style="italic" font-size="24.0" fill="#FEFFFE" transform="matrix(1.00, 0.00, -0.00, -1.00, 584.2, 319.5)">h</text><text xml:space="preserve" font-family="Helvetica-LightOblique,Helvetica" font-style="italic" font-size="24.0" fill="#FEFFFE" transform="matrix(1.00, 0.00, -0.00, -1.00, 597.5, 319.5)">a</text><text xml:space="preserve" font-family="Helvetica-LightOblique,Helvetica" font-style="italic" font-size="24.0" fill="#FEFFFE" transform="matrix(1.00, 0.00, -0.00, -1.00, 610.9, 319.5)">n</text><text xml:space="preserve" font-family="Helvetica-LightOblique,Helvetica" font-style="italic" font-size="24.0" fill="#FEFFFE" transform="matrix(1.00, 0.00, -0.00, -1.00, 624.2, 319.5)"> </text><text xml:space="preserve" font-family="Helvetica-LightOblique,Helvetica" font-style="italic" font-size="24.0" fill="#FEFFFE" transform="matrix(1.00, 0.00, -0.00, -1.00, 630.9, 319.5)">y</text><text xml:space="preserve" font-family="Helvetica-LightOblique,Helvetica" font-style="italic" font-size="24.0" fill="#FEFFFE" transform="matrix(1.00, 0.00, -0.00, -1.00, 642.9, 319.5)">o</text><text xml:space="preserve" font-family="Helvetica-LightOblique,Helvetica" font-style="italic" font-size="24.0" fill="#FEFFFE" transform="matrix(1.00, 0.00, -0.00, -1.00, 656.3, 319.5)">u</text><text xml:space="preserve" font-family="Helvetica-Light,Helvetica" font-size="70.0" fill="#FEFFFF" transform="matrix(1.00, 0.00, -0.00, -1.00, 118.5, 379.1)">“</text><text xml:space="preserve" font-family="Helvetica-Light,Helvetica" font-size="70.0" fill="#00A6AC" transform="matrix(1.00, 0.00, -0.00, -1.00, 145.7, 379.1)">w</text><text xml:space="preserve" font-family="Helvetica-Light,Helvetica" font-size="70.0" fill="#00A6AC" transform="matrix(1.00, 0.00, -0.00, -1.00, 196.2, 379.1)">e</text><text xml:space="preserve" font-family="Helvetica-Light,Helvetica" font-size="70.0" fill="#FEFFFF" transform="matrix(1.00, 0.00, -0.00, -1.00, 235.2, 379.1)"> </text><text xml:space="preserve" font-family="Helvetica-Light,Helvetica" font-size="70.0" fill="#FEFFFF" transform="matrix(1.00, 0.00, -0.00, -1.00, 254.6, 379.1)">c</text><text xml:space="preserve" font-family="Helvetica-Light,Helvetica" font-size="70.0" fill="#FEFFFF" transform="matrix(1.00, 0.00, -0.00, -1.00, 293.5, 379.1)">a</text><text xml:space="preserve" font-family="Helvetica-Light,Helvetica" font-size="70.0" fill="#FEFFFF" transform="matrix(1.00, 0.00, -0.00, -1.00, 332.5, 379.1)">n</text><text xml:space="preserve" font-family="Helvetica-Light,Helvetica" font-size="70.0" fill="#FEFFFF" transform="matrix(1.00, 0.00, -0.00, -1.00, 371.4, 379.1)"> </text><text xml:space="preserve" font-family="Helvetica-Light,Helvetica" font-size="70.0" fill="#00A6AC" transform="matrix(1.00, 0.00, -0.00, -1.00, 390.8, 379.1)">m</text><text xml:space="preserve" font-family="Helvetica-Light,Helvetica" font-size="70.0" fill="#00A6AC" transform="matrix(1.00, 0.00, -0.00, -1.00, 449.1, 379.1)">a</text><text xml:space="preserve" font-family="Helvetica-Light,Helvetica" font-size="70.0" fill="#00A6AC" transform="matrix(1.00, 0.00, -0.00, -1.00, 488.1, 379.1)">k</text><text xml:space="preserve" font-family="Helvetica-Light,Helvetica" font-size="70.0" fill="#00A6AC" transform="matrix(1.00, 0.00, -0.00, -1.00, 523.1, 379.1)">e</text><text xml:space="preserve" font-family="Helvetica-Light,Helvetica" font-size="70.0" fill="#FEFFFF" transform="matrix(1.00, 0.00, -0.00, -1.00, 562.0, 379.1)"> </text><text xml:space="preserve" font-family="Helvetica-Light,Helvetica" font-size="70.0" fill="#FEFFFF" transform="matrix(1.00, 0.00, -0.00, -1.00, 581.4, 379.1)">i</text><text xml:space="preserve" font-family="Helvetica-Light,Helvetica" font-size="70.0" fill="#FEFFFF" transform="matrix(1.00, 0.00, -0.00, -1.00, 597.0, 379.1)">t</text><text xml:space="preserve" font-family="Helvetica-Light,Helvetica" font-size="70.0" fill="#FEFFFF" transform="matrix(1.00, 0.00, -0.00, -1.00, 616.4, 379.1)"> </text><text xml:space="preserve" font-family="Helvetica-Light,Helvetica" font-size="70.0" fill="#FEFFFF" transform="matrix(1.00, 0.00, -0.00, -1.00, 635.9, 379.1)">i</text><text xml:space="preserve" font-family="Helvetica-Light,Helvetica" font-size="70.0" fill="#FEFFFF" transform="matrix(1.00, 0.00, -0.00, -1.00, 651.4, 379.1)">f</text><text xml:space="preserve" font-family="Helvetica-Light,Helvetica" font-size="70.0" fill="#FEFFFF" transform="matrix(1.00, 0.00, -0.00, -1.00, 670.9, 379.1)"> </text><text xml:space="preserve" font-family="Helvetica-Light,Helvetica" font-size="70.0" fill="#FEFFFF" transform="matrix(1.00, 0.00, -0.00, -1.00, 690.4, 379.1)">w</text><text xml:space="preserve" font-family="Helvetica-Light,Helvetica" font-size="70.0" fill="#FEFFFF" transform="matrix(1.00, 0.00, -0.00, -1.00, 740.9, 379.1)">e</text><text xml:space="preserve" font-family="Helvetica-Light,Helvetica" font-size="70.0" fill="#FEFFFF" transform="matrix(1.00, 0.00, -0.00, -1.00, 779.8, 379.1)"> </text><text xml:space="preserve" font-family="Helvetica-Light,Helvetica" font-size="70.0" fill="#FEFFFF" transform="matrix(1.00, 0.00, -0.00, -1.00, 799.3, 379.1)">t</text><text xml:space="preserve" font-family="Helvetica-Light,Helvetica" font-size="70.0" fill="#FEFFFF" transform="matrix(1.00, 0.00, -0.00, -1.00, 818.7, 379.1)">r</text><text xml:space="preserve" font-family="Helvetica-Light,Helvetica" font-size="70.0" fill="#FEFFFF" transform="matrix(1.00, 0.00, -0.00, -1.00, 843.3, 379.1)">y</text><text xml:space="preserve" font-family="Helvetica-Light,Helvetica" font-size="70.0" fill="#FEFFFF" transform="matrix(1.00, 0.00, -0.00, -1.00, 878.3, 379.1)">”</text></g></svg>