<?xml version="1.0" encoding="UTF-8" standalone="no"?><svg xmlns="http://www.w3.org/2000/svg" xmlns:xlink="http://www.w3.org/1999/xlink" clip-rule="evenodd" stroke-miterlimit="10" viewBox="0 0 1024 768"><desc>SVG generated by Keynote</desc><defs></defs><g transform="matrix(1.00, 0.00, -0.00, -1.00, 0.0, 768.0)"><path d="M 0.0 768.0 L 1024.0 768.0 L 1024.0 0.0 L 0.0 0.0 Z M 0.0 768.0 " fill="#000000"></path><text xml:space="preserve" font-family="Helvetica-Light,Helvetica" font-size="70.4" fill="#00A6AC" transform="matrix(1.00, 0.00, -0.00, -1.00, 266.8, 442.2)">R</text><text xml:space="preserve" font-family="Helvetica-Light,Helvetica" font-size="70.4" fill="#00A6AC" transform="matrix(1.00, 0.00, -0.00, -1.00, 313.8, 442.2)">E</text><text xml:space="preserve" font-family="Helvetica-Light,Helvetica" font-size="70.4" fill="#00A6AC" transform="matrix(1.00, 0.00, -0.00, -1.00, 356.8, 442.2)">L</text><text xml:space="preserve" font-family="Helvetica-Light,Helvetica" font-size="70.4" fill="#00A6AC" transform="matrix(1.00, 0.00, -0.00, -1.00, 395.9, 442.2)">A</text><text xml:space="preserve" font-family="Helvetica-Light,Helvetica" font-size="70.4" fill="#00A6AC" transform="matrix(1.00, 0.00, -0.00, -1.00, 436.4, 442.2)">T</text><text xml:space="preserve" font-family="Helvetica-Light,Helvetica" font-size="70.4" fill="#00A6AC" transform="matrix(1.00, 0.00, -0.00, -1.00, 475.6, 442.2)">I</text><text xml:space="preserve" font-family="Helvetica-Light,Helvetica" font-size="70.4" fill="#00A6AC" transform="matrix(1.00, 0.00, -0.00, -1.00, 495.1, 442.2)">O</text><text xml:space="preserve" font-family="Helvetica-Light,Helvetica" font-size="70.4" fill="#00A6AC" transform="matrix(1.00, 0.00, -0.00, -1.00, 549.9, 442.2)">N</text><text xml:space="preserve" font-family="Helvetica-Light,Helvetica" font-size="70.4" fill="#00A6AC" transform="matrix(1.00, 0.00, -0.00, -1.00, 600.7, 442.2)">S</text><text xml:space="preserve" font-family="Helvetica-Light,Helvetica" font-size="70.4" fill="#00A6AC" transform="matrix(1.00, 0.00, -0.00, -1.00, 643.8, 442.2)">H</text><text xml:space="preserve" font-family="Helvetica-Light,Helvetica" font-size="70.4" fill="#00A6AC" transform="matrix(1.00, 0.00, -0.00, -1.00, 694.6, 442.2)">I</text><text xml:space="preserve" font-family="Helvetica-Light,Helvetica" font-size="70.4" fill="#00A6AC" transform="matrix(1.00, 0.00, -0.00, -1.00, 714.2, 442.2)">P</text><text xml:space="preserve" font-family="Helvetica-Light,Helvetica" font-size="70.4" fill="#00A6AC" transform="matrix(1.00, 0.00, -0.00, -1.00, 757.2, 442.2)"> </text><text xml:space="preserve" font-family="Helvetica-Light,Helvetica" font-size="70.4" fill="#FEFFFF" transform="matrix(1.00, 0.00, -0.00, -1.00, 482.6, 358.2)">o</text><text xml:space="preserve" font-family="Helvetica-Light,Helvetica" font-size="70.4" fill="#FEFFFF" transform="matrix(1.00, 0.00, -0.00, -1.00, 521.8, 358.2)">f</text><text xml:space="preserve" font-family="Helvetica-Light,Helvetica" font-size="70.4" fill="#FEFFFF" transform="matrix(1.00, 0.00, -0.00, -1.00, 541.4, 358.2)"> </text><text xml:space="preserve" font-family="Helvetica-Light,Helvetica" font-size="70.4" fill="#FEFFFF" transform="matrix(1.00, 0.00, -0.00, -1.00, 264.9, 274.2)">F</text><text xml:space="preserve" font-family="Helvetica-Light,Helvetica" font-size="70.4" fill="#FEFFFF" transform="matrix(1.00, 0.00, -0.00, -1.00, 304.0, 274.2)">u</text><text xml:space="preserve" font-family="Helvetica-Light,Helvetica" font-size="70.4" fill="#FEFFFF" transform="matrix(1.00, 0.00, -0.00, -1.00, 343.2, 274.2)">l</text><text xml:space="preserve" font-family="Helvetica-Light,Helvetica" font-size="70.4" fill="#FEFFFF" transform="matrix(1.00, 0.00, -0.00, -1.00, 358.8, 274.2)">l</text><text xml:space="preserve" font-family="Helvetica-Light,Helvetica" font-size="70.4" fill="#FEFFFF" transform="matrix(1.00, 0.00, -0.00, -1.00, 374.4, 274.2)"> </text><text xml:space="preserve" font-family="Helvetica-Light,Helvetica" font-size="70.4" fill="#00A6AC" transform="matrix(1.00, 0.00, -0.00, -1.00, 394.0, 274.2)">S</text><text xml:space="preserve" font-family="Helvetica-Light,Helvetica" font-size="70.4" fill="#00A6AC" transform="matrix(1.00, 0.00, -0.00, -1.00, 437.0, 274.2)">t</text><text xml:space="preserve" font-family="Helvetica-Light,Helvetica" font-size="70.4" fill="#00A6AC" transform="matrix(1.00, 0.00, -0.00, -1.00, 456.6, 274.2)">a</text><text xml:space="preserve" font-family="Helvetica-Light,Helvetica" font-size="70.4" fill="#00A6AC" transform="matrix(1.00, 0.00, -0.00, -1.00, 495.7, 274.2)">c</text><text xml:space="preserve" font-family="Helvetica-Light,Helvetica" font-size="70.4" fill="#00A6AC" transform="matrix(1.00, 0.00, -0.00, -1.00, 534.9, 274.2)">k</text><text xml:space="preserve" font-family="Helvetica-Light,Helvetica" font-size="70.4" fill="#FEFFFF" transform="matrix(1.00, 0.00, -0.00, -1.00, 570.1, 274.2)"> </text><text xml:space="preserve" font-family="Helvetica-Light,Helvetica" font-size="70.4" fill="#FEFFFF" transform="matrix(1.00, 0.00, -0.00, -1.00, 589.7, 274.2)">G</text><text xml:space="preserve" font-family="Helvetica-Light,Helvetica" font-size="70.4" fill="#FEFFFF" transform="matrix(1.00, 0.00, -0.00, -1.00, 644.4, 274.2)">l</text><text xml:space="preserve" font-family="Helvetica-Light,Helvetica" font-size="70.4" fill="#FEFFFF" transform="matrix(1.00, 0.00, -0.00, -1.00, 660.1, 274.2)">o</text><text xml:space="preserve" font-family="Helvetica-Light,Helvetica" font-size="70.4" fill="#FEFFFF" transform="matrix(1.00, 0.00, -0.00, -1.00, 699.2, 274.2)">r</text><text xml:space="preserve" font-family="Helvetica-Light,Helvetica" font-size="70.4" fill="#FEFFFF" transform="matrix(1.00, 0.00, -0.00, -1.00, 723.9, 274.2)">y</text></g></svg>